<svg width="827" height="788" viewBox="0 0 827 788" fill="none" xmlns="http://www.w3.org/2000/svg">
<path d="M1 0L0.999961 788" stroke="#979797" stroke-opacity="0.08"/>
<path d="M76 0L76 788" stroke="#979797" stroke-opacity="0.08"/>
<path d="M826 51L1.00001 51" stroke="#979797" stroke-opacity="0.08"/>
<path d="M826 125L1.00001 125" stroke="#979797" stroke-opacity="0.08"/>
<path d="M826 205L1.00001 205" stroke="#979797" stroke-opacity="0.08"/>
<path d="M826 274L1.00001 274" stroke="#979797" stroke-opacity="0.08"/>
<path d="M826 343L1.00001 343" stroke="#979797" stroke-opacity="0.08"/>
<path d="M826 412L1.00001 412" stroke="#979797" stroke-opacity="0.08"/>
<path d="M826 481L1.00001 481" stroke="#979797" stroke-opacity="0.08"/>
<path d="M826 550L1.00001 550" stroke="#979797" stroke-opacity="0.08"/>
<path d="M826 619L1.00001 619" stroke="#979797" stroke-opacity="0.08"/>
<path d="M826 688L1.00001 688" stroke="#979797" stroke-opacity="0.08"/>
<path d="M151 0L151 788" stroke="#979797" stroke-opacity="0.08"/>
<path d="M226 0L226 788" stroke="#979797" stroke-opacity="0.08"/>
<path d="M301 0L301 788" stroke="#979797" stroke-opacity="0.08"/>
<path d="M376 0L376 788" stroke="#979797" stroke-opacity="0.08"/>
<path d="M451 0L451 788" stroke="#979797" stroke-opacity="0.08"/>
<path d="M526 0L526 788" stroke="#979797" stroke-opacity="0.08"/>
<path d="M601 0L601 788" stroke="#979797" stroke-opacity="0.08"/>
<path d="M676 0L676 788" stroke="#979797" stroke-opacity="0.08"/>
<path d="M751 0L751 788" stroke="#979797" stroke-opacity="0.08"/>
<path d="M826 0L826 788" stroke="#979797" stroke-opacity="0.08"/>
</svg>
